<svg width="639" height="151" viewBox="0 0 639 151" fill="none" xmlns="http://www.w3.org/2000/svg">
<path d="M156.25 73.9688L152.125 105.938L145.469 105.094L153.156 46.0781C154.219 45.7969 155.266 45.5781 156.297 45.4219C157.328 45.2656 158.297 45.1562 159.203 45.0938C160.109 45 160.922 44.9531 161.641 44.9531C162.359 44.9219 162.953 44.9062 163.422 44.9062C164.391 44.9062 165.812 44.9688 167.688 45.0938C169.594 45.2188 171.641 45.5469 173.828 46.0781L181.375 105.094L174.766 105.938L170.641 73.9688H156.25ZM163.422 51.0469C162.672 51.0469 161.922 51.0938 161.172 51.1875C160.422 51.25 159.734 51.3594 159.109 51.5156L157 67.8281H169.703L167.781 51.5156C167.156 51.3594 166.469 51.25 165.719 51.1875C164.969 51.0938 164.203 51.0469 163.422 51.0469ZM188.078 65.25C188.922 64.75 189.891 64.2344 190.984 63.7031C192.109 63.1719 193.359 62.7031 194.734 62.2969C196.141 61.8594 197.656 61.5156 199.281 61.2656C200.938 60.9844 202.734 60.8438 204.672 60.8438C205.891 60.8438 207.203 60.9375 208.609 61.125C210.016 61.2812 211.391 61.625 212.734 62.1562C214.109 62.6875 215.391 63.4531 216.578 64.4531C217.766 65.4531 218.766 66.7812 219.578 68.4375C219.891 69.1562 220.156 69.9688 220.375 70.875C220.594 71.7812 220.766 72.8906 220.891 74.2031C221.047 75.5156 221.156 77.0938 221.219 78.9375C221.281 80.75 221.312 82.9375 221.312 85.5V105H215.172V85.3125C215.172 83.2188 215.141 81.3906 215.078 79.8281C215.047 78.2344 214.969 76.8594 214.844 75.7031C214.719 74.5156 214.531 73.5156 214.281 72.7031C214.031 71.8594 213.719 71.1406 213.344 70.5469C213.062 70.1094 212.688 69.6562 212.219 69.1875C211.75 68.7188 211.141 68.2969 210.391 67.9219C209.672 67.5469 208.797 67.2344 207.766 66.9844C206.766 66.7344 205.578 66.6094 204.203 66.6094C202.672 66.6094 201.266 66.75 199.984 67.0312C198.734 67.2812 197.578 67.625 196.516 68.0625V105H190.375V69.9375L188.078 65.25ZM239.172 45.8438V53.0625H232.281V45.8438H239.172ZM238.797 61.7812V105H232.656V67.8281L230.734 61.7812H238.797ZM248.078 67.1719C251.641 65.0156 255.547 63.4219 259.797 62.3906C264.047 61.3594 268.531 60.8438 273.25 60.8438C274.094 60.8438 275.234 60.8906 276.672 60.9844C278.141 61.0469 279.703 61.25 281.359 61.5938C283.047 61.9375 284.734 62.4688 286.422 63.1875C288.109 63.875 289.609 64.8281 290.922 66.0469C292.109 67.2031 293.047 68.4531 293.734 69.7969C294.422 71.1094 294.922 72.4688 295.234 73.875C295.578 75.25 295.781 76.6406 295.844 78.0469C295.938 79.4531 295.984 80.8281 295.984 82.1719V105H289.938V85.5C289.938 84.3125 289.922 83.0312 289.891 81.6562C289.891 80.25 289.781 78.8594 289.562 77.4844C289.375 76.1094 289.047 74.8125 288.578 73.5938C288.141 72.3438 287.484 71.2656 286.609 70.3594C286.016 69.7656 285.297 69.2344 284.453 68.7656C283.641 68.2969 282.766 67.9062 281.828 67.5938C280.922 67.2812 280 67.0469 279.062 66.8906C278.156 66.7031 277.312 66.6094 276.531 66.6094V105H270.344V66.6094C268.094 66.6094 265.812 66.8281 263.5 67.2656C261.188 67.6719 259 68.3125 256.938 69.1875V105H250.797V71.8594L248.078 67.1719ZM329.453 79.3594C329.453 78.6719 329.438 77.9219 329.406 77.1094C329.406 76.2656 329.344 75.4219 329.219 74.5781C329.125 73.7344 328.953 72.9062 328.703 72.0938C328.484 71.25 328.156 70.5 327.719 69.8438C327.5 69.5312 327.203 69.1875 326.828 68.8125C326.484 68.4375 326.047 68.0938 325.516 67.7812C324.984 67.4375 324.344 67.1562 323.594 66.9375C322.844 66.7188 321.984 66.6094 321.016 66.6094C320.078 66.6094 319.234 66.7188 318.484 66.9375C317.766 67.1562 317.125 67.4375 316.562 67.7812C316.031 68.0938 315.578 68.4375 315.203 68.8125C314.859 69.1875 314.578 69.5312 314.359 69.8438C313.922 70.5312 313.578 71.2812 313.328 72.0938C313.109 72.9062 312.953 73.75 312.859 74.625C312.766 75.4688 312.703 76.2969 312.672 77.1094C312.672 77.9219 312.672 78.6719 312.672 79.3594H329.453ZM312.672 85.125V97.6875C314.172 98.6875 315.781 99.3594 317.5 99.7031C319.219 100.047 320.828 100.219 322.328 100.219C325.078 100.219 327.547 99.9219 329.734 99.3281C331.953 98.7031 334.094 97.6875 336.156 96.2812V102.703C334.188 103.859 332.078 104.688 329.828 105.188C327.578 105.688 325.125 105.938 322.469 105.938C318.375 105.938 314.781 105.375 311.688 104.25C308.594 103.094 305.781 101.391 303.25 99.1406L306.531 95.2031V79.5469V77.9062C306.531 77 306.562 76.0156 306.625 74.9531C306.688 73.8594 306.828 72.75 307.047 71.625C307.297 70.4688 307.672 69.3438 308.172 68.25C308.672 67.125 309.359 66.0625 310.234 65.0625C311.109 64.0938 312.016 63.3281 312.953 62.7656C313.922 62.2031 314.891 61.7812 315.859 61.5C316.828 61.2188 317.766 61.0469 318.672 60.9844C319.609 60.8906 320.484 60.8438 321.297 60.8438C322.078 60.8438 322.938 60.8906 323.875 60.9844C324.812 61.0469 325.766 61.2188 326.734 61.5C327.703 61.7812 328.656 62.2031 329.594 62.7656C330.562 63.3281 331.469 64.0938 332.312 65.0625C333.312 66.2188 334.078 67.4688 334.609 68.8125C335.141 70.125 335.516 71.4375 335.734 72.75C335.984 74.0312 336.109 75.2656 336.109 76.4531C336.141 77.6406 336.156 78.6719 336.156 79.5469V85.125H312.672ZM370.141 69.6562C368.328 68.7188 366.562 68.0156 364.844 67.5469C363.156 67.0469 361.234 66.7969 359.078 66.7969C358.016 66.7969 357.016 66.8906 356.078 67.0781C355.172 67.2656 354.375 67.5938 353.688 68.0625C353 68.5 352.453 69.0938 352.047 69.8438C351.641 70.5938 351.438 71.5312 351.438 72.6562C351.438 73.5312 351.578 74.2969 351.859 74.9531C352.172 75.6094 352.594 76.2031 353.125 76.7344C353.688 77.2656 354.328 77.75 355.047 78.1875C355.766 78.625 356.547 79.0469 357.391 79.4531L363.719 82.5469C366.5 83.9219 368.688 85.4844 370.281 87.2344C371.906 88.9531 372.719 91.0938 372.719 93.6562V95.8594L376 99.7969C374.594 101.078 373.141 102.125 371.641 102.938C370.172 103.719 368.688 104.344 367.188 104.812C365.688 105.25 364.203 105.547 362.734 105.703C361.266 105.859 359.828 105.938 358.422 105.938C355.578 105.938 353.062 105.703 350.875 105.234C348.719 104.797 346.844 104.234 345.25 103.547V97.4062C346.125 97.7812 347.016 98.1406 347.922 98.4844C348.859 98.8281 349.844 99.1406 350.875 99.4219C351.906 99.6719 353.016 99.875 354.203 100.031C355.422 100.156 356.766 100.219 358.234 100.219C360.016 100.219 361.625 100.031 363.062 99.6562C364.531 99.2812 365.703 98.7656 366.578 98.1094V96.1875C366.578 95.2188 366.484 94.3438 366.297 93.5625C366.109 92.7812 365.781 92.0625 365.312 91.4062C364.875 90.75 364.266 90.125 363.484 89.5312C362.703 88.9375 361.719 88.3281 360.531 87.7031L353.125 84.0938C352.062 83.5938 351.047 83.0156 350.078 82.3594C349.141 81.7031 348.312 80.9219 347.594 80.0156C346.875 79.1094 346.297 78.0625 345.859 76.875C345.453 75.6562 345.25 74.25 345.25 72.6562C345.25 70.875 345.562 69.2656 346.188 67.8281C346.812 66.3594 347.719 65.1094 348.906 64.0781C350.125 63.0469 351.578 62.25 353.266 61.6875C354.984 61.125 356.922 60.8438 359.078 60.8438C361.828 60.8438 364.328 61.1719 366.578 61.8281C368.828 62.4844 370.844 63.3125 372.625 64.3125L370.141 69.6562ZM419.219 99.7969C421.562 99.7969 423.625 99.5625 425.406 99.0938C427.188 98.5938 428.797 97.8438 430.234 96.8438V67.0781C430.234 65.1406 430.094 63.2188 429.812 61.3125C429.531 59.375 428.984 57.6562 428.172 56.1562C427.359 54.625 426.234 53.3906 424.797 52.4531C423.359 51.5156 421.5 51.0469 419.219 51.0469C416.906 51.0469 415.031 51.5156 413.594 52.4531C412.156 53.3906 411.031 54.625 410.219 56.1562C409.406 57.6562 408.859 59.375 408.578 61.3125C408.297 63.2188 408.156 65.1406 408.156 67.0781V96.8438C409.656 97.8438 411.281 98.5938 413.031 99.0938C414.812 99.5625 416.875 99.7969 419.219 99.7969ZM419.219 44.9062C422.562 44.9062 425.359 45.5 427.609 46.6875C429.891 47.8438 431.719 49.4219 433.094 51.4219C434.5 53.4219 435.5 55.7812 436.094 58.5C436.688 61.1875 436.984 64.0469 436.984 67.0781V93.75L440.406 98.2031C439.344 99.1094 438.125 100.031 436.75 100.969C435.375 101.875 433.812 102.703 432.062 103.453C430.344 104.172 428.406 104.766 426.25 105.234C424.125 105.703 421.781 105.938 419.219 105.938C416.875 105.938 414.766 105.75 412.891 105.375C411.016 105.031 409.344 104.594 407.875 104.062C406.438 103.531 405.188 102.953 404.125 102.328C403.062 101.703 402.172 101.125 401.453 100.594V67.0781C401.453 64.0469 401.75 61.1875 402.344 58.5C402.938 55.7812 403.922 53.4219 405.297 51.4219C406.672 49.4219 408.484 47.8438 410.734 46.6875C413.016 45.5 415.844 44.9062 419.219 44.9062ZM447.203 65.25C448.047 64.75 449.016 64.2344 450.109 63.7031C451.234 63.1719 452.484 62.7031 453.859 62.2969C455.266 61.8594 456.781 61.5156 458.406 61.2656C460.062 60.9844 461.859 60.8438 463.797 60.8438C465.016 60.8438 466.328 60.9375 467.734 61.125C469.141 61.2812 470.516 61.625 471.859 62.1562C473.234 62.6875 474.516 63.4531 475.703 64.4531C476.891 65.4531 477.891 66.7812 478.703 68.4375C479.016 69.1562 479.281 69.9688 479.5 70.875C479.719 71.7812 479.891 72.8906 480.016 74.2031C480.172 75.5156 480.281 77.0938 480.344 78.9375C480.406 80.75 480.438 82.9375 480.438 85.5V105H474.297V85.3125C474.297 83.2188 474.266 81.3906 474.203 79.8281C474.172 78.2344 474.094 76.8594 473.969 75.7031C473.844 74.5156 473.656 73.5156 473.406 72.7031C473.156 71.8594 472.844 71.1406 472.469 70.5469C472.188 70.1094 471.812 69.6562 471.344 69.1875C470.875 68.7188 470.266 68.2969 469.516 67.9219C468.797 67.5469 467.922 67.2344 466.891 66.9844C465.891 66.7344 464.703 66.6094 463.328 66.6094C461.797 66.6094 460.391 66.75 459.109 67.0312C457.859 67.2812 456.703 67.625 455.641 68.0625V105H449.5V69.9375L447.203 65.25ZM497.359 42.1406V80.1562C497.359 82.7812 497.438 85.0938 497.594 87.0938C497.781 89.0625 498.188 90.8438 498.812 92.4375C499.469 94.0312 500.422 95.5 501.672 96.8438C502.953 98.1875 504.688 99.5312 506.875 100.875L503.688 105.938C501.062 104.531 498.922 103.016 497.266 101.391C495.641 99.7656 494.375 97.9375 493.469 95.9062C492.594 93.8438 492 91.5312 491.688 88.9688C491.375 86.4062 491.219 83.4688 491.219 80.1562V48.1875L489.297 42.1406H497.359ZM519.766 45.8438V53.0625H512.875V45.8438H519.766ZM519.391 61.7812V105H513.25V67.8281L511.328 61.7812H519.391ZM528.953 65.25C529.797 64.75 530.766 64.2344 531.859 63.7031C532.984 63.1719 534.234 62.7031 535.609 62.2969C537.016 61.8594 538.531 61.5156 540.156 61.2656C541.812 60.9844 543.609 60.8438 545.547 60.8438C546.766 60.8438 548.078 60.9375 549.484 61.125C550.891 61.2812 552.266 61.625 553.609 62.1562C554.984 62.6875 556.266 63.4531 557.453 64.4531C558.641 65.4531 559.641 66.7812 560.453 68.4375C560.766 69.1562 561.031 69.9688 561.25 70.875C561.469 71.7812 561.641 72.8906 561.766 74.2031C561.922 75.5156 562.031 77.0938 562.094 78.9375C562.156 80.75 562.188 82.9375 562.188 85.5V105H556.047V85.3125C556.047 83.2188 556.016 81.3906 555.953 79.8281C555.922 78.2344 555.844 76.8594 555.719 75.7031C555.594 74.5156 555.406 73.5156 555.156 72.7031C554.906 71.8594 554.594 71.1406 554.219 70.5469C553.938 70.1094 553.562 69.6562 553.094 69.1875C552.625 68.7188 552.016 68.2969 551.266 67.9219C550.547 67.5469 549.672 67.2344 548.641 66.9844C547.641 66.7344 546.453 66.6094 545.078 66.6094C543.547 66.6094 542.141 66.75 540.859 67.0312C539.609 67.2812 538.453 67.625 537.391 68.0625V105H531.25V69.9375L528.953 65.25ZM595.797 79.3594C595.797 78.6719 595.781 77.9219 595.75 77.1094C595.75 76.2656 595.688 75.4219 595.562 74.5781C595.469 73.7344 595.297 72.9062 595.047 72.0938C594.828 71.25 594.5 70.5 594.062 69.8438C593.844 69.5312 593.547 69.1875 593.172 68.8125C592.828 68.4375 592.391 68.0938 591.859 67.7812C591.328 67.4375 590.688 67.1562 589.938 66.9375C589.188 66.7188 588.328 66.6094 587.359 66.6094C586.422 66.6094 585.578 66.7188 584.828 66.9375C584.109 67.1562 583.469 67.4375 582.906 67.7812C582.375 68.0938 581.922 68.4375 581.547 68.8125C581.203 69.1875 580.922 69.5312 580.703 69.8438C580.266 70.5312 579.922 71.2812 579.672 72.0938C579.453 72.9062 579.297 73.75 579.203 74.625C579.109 75.4688 579.047 76.2969 579.016 77.1094C579.016 77.9219 579.016 78.6719 579.016 79.3594H595.797ZM579.016 85.125V97.6875C580.516 98.6875 582.125 99.3594 583.844 99.7031C585.562 100.047 587.172 100.219 588.672 100.219C591.422 100.219 593.891 99.9219 596.078 99.3281C598.297 98.7031 600.438 97.6875 602.5 96.2812V102.703C600.531 103.859 598.422 104.688 596.172 105.188C593.922 105.688 591.469 105.938 588.812 105.938C584.719 105.938 581.125 105.375 578.031 104.25C574.938 103.094 572.125 101.391 569.594 99.1406L572.875 95.2031V79.5469V77.9062C572.875 77 572.906 76.0156 572.969 74.9531C573.031 73.8594 573.172 72.75 573.391 71.625C573.641 70.4688 574.016 69.3438 574.516 68.25C575.016 67.125 575.703 66.0625 576.578 65.0625C577.453 64.0938 578.359 63.3281 579.297 62.7656C580.266 62.2031 581.234 61.7812 582.203 61.5C583.172 61.2188 584.109 61.0469 585.016 60.9844C585.953 60.8906 586.828 60.8438 587.641 60.8438C588.422 60.8438 589.281 60.8906 590.219 60.9844C591.156 61.0469 592.109 61.2188 593.078 61.5C594.047 61.7812 595 62.2031 595.938 62.7656C596.906 63.3281 597.812 64.0938 598.656 65.0625C599.656 66.2188 600.422 67.4688 600.953 68.8125C601.484 70.125 601.859 71.4375 602.078 72.75C602.328 74.0312 602.453 75.2656 602.453 76.4531C602.484 77.6406 602.5 78.6719 602.5 79.5469V85.125H579.016ZM619.797 96.9375V105H611.734V96.9375H619.797Z" fill="#FCFCFC"/>
<path d="M117.593 75.3199C115.895 71.5624 113.959 67.3053 112.079 62.0494C107.146 48.291 122.907 33.2839 123.057 33.1445L114.227 24.9324C113.353 25.7455 92.853 45.1316 100.228 65.7198C102.263 71.3998 104.299 75.8833 106.085 79.8325C110.252 87.4904 112.415 95.9556 112.398 104.538C111.666 111.457 108.81 118.033 104.171 123.483C99.5322 128.934 93.3056 133.028 86.234 135.279C88.468 127.134 88.4347 118.595 86.1372 110.466C83.8397 102.337 79.3536 94.8866 73.1022 88.817L66.5832 82.7538L62.949 90.6348C51.4844 115.515 37.8406 126.375 29.8166 130.905C24.8908 128.1 20.7515 124.246 17.739 119.663C14.7266 115.079 12.9271 109.895 12.4886 104.538C12.9194 97.2275 14.8904 90.0665 18.2896 83.4623C22.321 75.5014 24.595 66.8694 24.9773 58.0769V47.7508C30.4348 49.8416 37.4659 55.3183 37.4659 69.6923V84.8097L48.3497 73.5776C67.7821 53.5179 63.7295 29.6308 55.8804 13.712C61.8468 15.5617 66.9703 19.225 70.4262 24.1121C73.882 28.9993 75.469 34.8259 74.9318 40.6538H87.4204C87.4204 8.49665 58.8277 0 43.7102 0H31.2216L38.7148 9.2865C39.5702 10.3609 56.586 32.0933 47.1633 53.936C45.0665 48.447 41.2239 43.6812 36.1458 40.2715C31.0678 36.8618 24.9946 34.9696 18.733 34.8461H12.4886V58.0769C12.0579 65.3879 10.0869 72.5489 6.68766 79.153C2.65631 87.114 0.382258 95.7459 0 104.538C0 126.886 23.872 151 62.4432 151C101.014 151 124.886 126.886 124.886 104.538C124.896 94.4077 122.4 84.4106 117.593 75.3199ZM42.6799 136.632C48.6122 132.064 53.9574 126.907 58.6272 121.264C63.0246 115.95 66.823 110.206 69.9488 104.12C73.3898 109.288 75.3447 115.191 75.6257 121.264C75.9067 127.337 74.5045 133.375 71.5536 138.798C68.5336 139.176 65.4904 139.372 62.4432 139.385C55.7416 139.428 49.0739 138.499 42.6799 136.632Z" fill="#BD00FF"/>
</svg>
